<svg
      version="1.1"
      baseProfile="full"
      width="7px"
      height="7px"
      xmlns="http://www.w3.org/2000/svg"
    ><rect x="0px" y="0px" width="1px" height="1px" fill="#F44E3B" /><rect x="1px" y="0px" width="1px" height="1px" fill="#fe9200" /><rect x="2px" y="0px" width="1px" height="1px" fill="#fb9e00" /><rect x="3px" y="0px" width="1px" height="1px" fill="#fcdc00" /><rect x="4px" y="0px" width="1px" height="1px" fill="#fe9200" /><rect x="5px" y="0px" width="1px" height="1px" fill="#9f0500" /><rect x="6px" y="0px" width="1px" height="1px" fill="#d33115" /><rect x="0px" y="1px" width="1px" height="1px" fill="#d33115" /><rect x="1px" y="1px" width="1px" height="1px" fill="#F44E3B" /><rect x="2px" y="1px" width="1px" height="1px" fill="#fe9200" /><rect x="3px" y="1px" width="1px" height="1px" fill="#fb9e00" /><rect x="4px" y="1px" width="1px" height="1px" fill="#fcdc00" /><rect x="5px" y="1px" width="1px" height="1px" fill="#fe9200" /><rect x="6px" y="1px" width="1px" height="1px" fill="#9f0500" /><rect x="0px" y="2px" width="1px" height="1px" fill="#9f0500" /><rect x="1px" y="2px" width="1px" height="1px" fill="#d33115" /><rect x="2px" y="2px" width="1px" height="1px" fill="#F44E3B" /><rect x="3px" y="2px" width="1px" height="1px" fill="#fe9200" /><rect x="4px" y="2px" width="1px" height="1px" fill="#fb9e00" /><rect x="5px" y="2px" width="1px" height="1px" fill="#fcdc00" /><rect x="6px" y="2px" width="1px" height="1px" fill="#fe9200" /><rect x="0px" y="3px" width="1px" height="1px" fill="#f44e3b" /><rect x="1px" y="3px" width="1px" height="1px" fill="#9f0500" /><rect x="2px" y="3px" width="1px" height="1px" fill="#d33115" /><rect x="3px" y="3px" width="1px" height="1px" fill="#F44E3B" /><rect x="4px" y="3px" width="1px" height="1px" fill="#fe9200" /><rect x="5px" y="3px" width="1px" height="1px" fill="#fb9e00" /><rect x="6px" y="3px" width="1px" height="1px" fill="#fcdc00" /><rect x="0px" y="4px" width="1px" height="1px" fill="#9f0500" /><rect x="1px" y="4px" width="1px" height="1px" fill="#d33115" /><rect x="2px" y="4px" width="1px" height="1px" fill="#F44E3B" /><rect x="3px" y="4px" width="1px" height="1px" fill="#fe9200" /><rect x="4px" y="4px" width="1px" height="1px" fill="#fb9e00" /><rect x="5px" y="4px" width="1px" height="1px" fill="#fcdc00" /><rect x="6px" y="4px" width="1px" height="1px" fill="#fe9200" /><rect x="0px" y="5px" width="1px" height="1px" fill="#d33115" /><rect x="1px" y="5px" width="1px" height="1px" fill="#F44E3B" /><rect x="2px" y="5px" width="1px" height="1px" fill="#fe9200" /><rect x="3px" y="5px" width="1px" height="1px" fill="#fb9e00" /><rect x="4px" y="5px" width="1px" height="1px" fill="#fcdc00" /><rect x="5px" y="5px" width="1px" height="1px" fill="#fe9200" /><rect x="6px" y="5px" width="1px" height="1px" fill="#9f0500" /><rect x="0px" y="6px" width="1px" height="1px" fill="#F44E3B" /><rect x="1px" y="6px" width="1px" height="1px" fill="#fe9200" /><rect x="2px" y="6px" width="1px" height="1px" fill="#fb9e00" /><rect x="3px" y="6px" width="1px" height="1px" fill="#fcdc00" /><rect x="4px" y="6px" width="1px" height="1px" fill="#fe9200" /><rect x="5px" y="6px" width="1px" height="1px" fill="#9f0500" /><rect x="6px" y="6px" width="1px" height="1px" fill="#d33115" /></svg>